<?xml version="1.0" encoding="iso-8859-1"?>
<!-- Generator: Adobe Illustrator 16.0.0, SVG Export Plug-In . SVG Version: 6.00 Build 0)  -->
<!DOCTYPE svg PUBLIC "-//W3C//DTD SVG 1.1//EN" "http://www.w3.org/Graphics/SVG/1.1/DTD/svg11.dtd">
<svg version="1.1" id="image" xmlns="http://www.w3.org/2000/svg" xmlns:xlink="http://www.w3.org/1999/xlink" x="0px" y="0px"
	 width="64px" height="64px" viewBox="0 0 64 64" style="enable-background:new 0 0 64 64;" xml:space="preserve">
<g id="Layer_140">
	<path style="fill-rule:evenodd;clip-rule:evenodd;fill:#49C9A7;" d="M9.125,0.042c-2.801,0-5.072,2.273-5.072,5.074v53.841
		c0,2.803,2.271,5.073,5.072,5.073H54.9c2.801,0,5.074-2.271,5.074-5.073V20.353L41.07,0.042H9.125z"/>
	<g style="opacity:0.5;">
		<g style="opacity:0.5;">
			<path style="fill-rule:evenodd;clip-rule:evenodd;" d="M41.062,1.036h-1.794v16.762c0,3.26,2.422,5.987,5.729,5.987h14.978
				v-2.392L41.062,1.036z"/>
		</g>
		<g>
			<path style="fill-rule:evenodd;clip-rule:evenodd;fill:#FFFFFF;" d="M41.062,0.036h-1.794v16.762c0,3.26,2.422,5.987,5.729,5.987
				h14.978v-2.392L41.062,0.036z"/>
		</g>
	</g>
</g>
<g id="Layer_160">
	<path style="fill-rule:evenodd;clip-rule:evenodd;fill:#FFFFFF;" d="M14.119,53.739V32.835h20.906v20.904H14.119z M32.918,34.896
		H16.227v12.6h16.691V34.896z M23.335,43.28l3.909-5.256l1.207,2.123l1.395-0.434l0.984,5.631H17.748l3.496-3.32L23.335,43.28z
		 M19.479,39.64c-0.91,0-1.649-0.688-1.649-1.538c0-0.849,0.739-1.538,1.649-1.538c0.912,0,1.65,0.689,1.65,1.538
		C21.129,38.952,20.391,39.64,19.479,39.64z"/>
</g>
</svg>
