<?xml version="1.0" encoding="iso-8859-1"?>
<!-- Generator: Adobe Illustrator 16.0.0, SVG Export Plug-In . SVG Version: 6.00 Build 0)  -->
<!DOCTYPE svg PUBLIC "-//W3C//DTD SVG 1.1//EN" "http://www.w3.org/Graphics/SVG/1.1/DTD/svg11.dtd">
<svg version="1.1" id="txt" xmlns="http://www.w3.org/2000/svg" xmlns:xlink="http://www.w3.org/1999/xlink" x="0px" y="0px"
	 width="64px" height="64px" viewBox="0 0 64 64" style="enable-background:new 0 0 64 64;" xml:space="preserve">
<g id="Layer_149">
	<path style="fill-rule:evenodd;clip-rule:evenodd;fill:#F9CA06;" d="M9.151-0.036c-2.803,0-5.074,2.272-5.074,5.074v53.841
		c0,2.803,2.271,5.074,5.074,5.074h45.774c2.801,0,5.074-2.271,5.074-5.074V20.274L41.097-0.036H9.151z"/>
	<g style="opacity:0.5;">
		<g style="opacity:0.5;">
			<path style="fill-rule:evenodd;clip-rule:evenodd;" d="M41.088,0.958h-1.794v16.761c0,3.261,2.422,5.989,5.729,5.989H60v-2.392
				L41.088,0.958z"/>
		</g>
		<g>
			<path style="fill-rule:evenodd;clip-rule:evenodd;fill:#FFFFFF;" d="M41.088-0.042h-1.794v16.761
				c0,3.261,2.422,5.989,5.729,5.989H60v-2.392L41.088-0.042z"/>
		</g>
	</g>
	<g>
		<path style="fill:#FFFFFF;" d="M22.763,43.045h-3.277v10.047c0,0.414-0.324,0.738-0.756,0.738c-0.414,0-0.738-0.324-0.738-0.738
			V43.045h-3.259c-0.36,0-0.648-0.288-0.648-0.684c0-0.36,0.288-0.648,0.648-0.648h8.03c0.36,0,0.648,0.288,0.648,0.685
			C23.411,42.757,23.123,43.045,22.763,43.045z"/>
		<path style="fill:#FFFFFF;" d="M34.463,53.848c-0.216,0-0.415-0.089-0.541-0.27l-3.727-4.97l-3.745,4.97
			c-0.126,0.181-0.324,0.27-0.54,0.27c-0.396,0-0.72-0.306-0.72-0.72c0-0.144,0.036-0.306,0.144-0.432l3.889-5.131l-3.619-4.826
			c-0.09-0.126-0.144-0.27-0.144-0.414c0-0.343,0.288-0.721,0.72-0.721c0.216,0,0.432,0.108,0.576,0.288l3.439,4.627l3.439-4.646
			c0.126-0.18,0.324-0.27,0.541-0.27c0.378,0,0.738,0.306,0.738,0.721c0,0.144-0.036,0.288-0.126,0.414l-3.619,4.808l3.89,5.149
			c0.09,0.126,0.126,0.27,0.126,0.415C35.184,53.506,34.859,53.848,34.463,53.848z"/>
		<path style="fill:#FFFFFF;" d="M45.658,43.045h-3.277v10.047c0,0.414-0.323,0.738-0.756,0.738c-0.414,0-0.738-0.324-0.738-0.738
			V43.045h-3.259c-0.36,0-0.648-0.288-0.648-0.684c0-0.36,0.288-0.648,0.648-0.648h8.03c0.36,0,0.648,0.288,0.648,0.685
			C46.307,42.757,46.019,43.045,45.658,43.045z"/>
	</g>
</g>
</svg>
