<?xml version="1.0" encoding="iso-8859-1"?>
<!-- Generator: Adobe Illustrator 16.0.0, SVG Export Plug-In . SVG Version: 6.00 Build 0)  -->
<!DOCTYPE svg PUBLIC "-//W3C//DTD SVG 1.1//EN" "http://www.w3.org/Graphics/SVG/1.1/DTD/svg11.dtd">
<svg version="1.1" id="word" xmlns="http://www.w3.org/2000/svg" xmlns:xlink="http://www.w3.org/1999/xlink" x="0px" y="0px"
	 width="64px" height="64px" viewBox="0 0 64 64" style="enable-background:new 0 0 64 64;" xml:space="preserve">
<g id="Layer_154">
	<path style="fill-rule:evenodd;clip-rule:evenodd;fill:#14A9DA;" d="M9.113-0.03c-2.803,0-5.074,2.273-5.074,5.074v53.841
		c0,2.803,2.271,5.075,5.074,5.075h45.774c2.801,0,5.073-2.272,5.073-5.075V20.28L41.059-0.03H9.113z"/>
	<g style="opacity:0.5;">
		<g style="opacity:0.5;">
			<path style="fill-rule:evenodd;clip-rule:evenodd;" d="M41.05,0.964h-1.794v16.761c0,3.26,2.422,5.988,5.729,5.988h14.977v-2.392
				L41.05,0.964z"/>
		</g>
		<g>
			<path style="fill-rule:evenodd;clip-rule:evenodd;fill:#FFFFFF;" d="M41.05-0.036h-1.794v16.761c0,3.26,2.422,5.988,5.729,5.988
				h14.977v-2.392L41.05-0.036z"/>
		</g>
	</g>
	<g>
		<path style="fill:#FFFFFF;" d="M18.244,53.863h-3.025c-0.594,0-1.08-0.486-1.08-1.081v-9.849c0-0.594,0.486-1.081,1.08-1.081
			h3.025c3.727,0,6.158,2.611,6.158,6.015C24.402,51.288,21.971,53.863,18.244,53.863z M18.244,43.186h-2.611v9.345h2.611
			c2.917,0,4.609-2.088,4.609-4.663C22.854,45.274,21.215,43.186,18.244,43.186z"/>
		<path style="fill:#FFFFFF;" d="M32.662,54.079c-3.564,0-5.959-2.665-5.959-6.212c0-3.547,2.395-6.212,5.959-6.212
			c3.548,0,5.961,2.665,5.961,6.212C38.623,51.414,36.21,54.079,32.662,54.079z M32.662,42.987c-2.7,0-4.41,2.071-4.41,4.88
			c0,2.791,1.71,4.879,4.41,4.879c2.684,0,4.412-2.089,4.412-4.879C37.074,45.058,35.346,42.987,32.662,42.987z"/>
		<path style="fill:#FFFFFF;" d="M51.113,43.366c0.127,0.144,0.198,0.324,0.198,0.522c0,0.378-0.306,0.721-0.702,0.721
			c-0.18,0-0.378-0.072-0.504-0.234c-0.702-0.846-1.891-1.387-3.007-1.387c-2.629,0-4.628,2.017-4.628,4.88
			c0,2.845,1.999,4.879,4.628,4.879c1.134,0,2.251-0.486,3.007-1.369c0.126-0.144,0.324-0.234,0.504-0.234
			c0.414,0,0.702,0.36,0.702,0.739c0,0.18-0.071,0.359-0.198,0.503c-0.936,0.972-2.215,1.693-4.015,1.693
			c-3.457,0-6.176-2.521-6.176-6.212c0-3.691,2.719-6.212,6.176-6.212C48.898,41.655,50.195,42.376,51.113,43.366z"/>
	</g>
</g>
</svg>
